<?xml version="1.0" encoding="UTF-8"?>
<svg version="1.1" xmlns="http://www.w3.org/2000/svg" width="204" height="204">
<path d="M0 0 C67.32 0 134.64 0 204 0 C204 67.32 204 134.64 204 204 C136.68 204 69.36 204 0 204 C0 136.68 0 69.36 0 0 Z " fill="#FDFDFD" transform="translate(0,0)"/>
<path d="M0 0 C0.74056641 0.02255859 1.48113281 0.04511719 2.24414062 0.06835938 C4.05947357 0.1269185 5.87375681 0.21659114 7.6875 0.3125 C7.6875 0.9725 7.6875 1.6325 7.6875 2.3125 C8.6775 1.6525 9.6675 0.9925 10.6875 0.3125 C13.36518864 0.03779112 15.88375281 -0.10328043 18.5625 -0.125 C19.27019531 -0.15787109 19.97789063 -0.19074219 20.70703125 -0.22460938 C24.76146117 -0.26613519 26.49272103 0.15692978 29.6953125 2.71484375 C31.6875 5.3125 31.6875 5.3125 31.6875 7.3125 C27.7275 7.6425 23.7675 7.9725 19.6875 8.3125 C21.87126725 10.49626725 27.68284251 9.61340522 30.78515625 9.65429688 C36.2650675 9.86890178 36.2650675 9.86890178 38.55859375 12.27734375 C38.93113281 12.94894531 39.30367188 13.62054688 39.6875 14.3125 C41.77084635 15.5641467 41.77084635 15.5641467 43.6875 16.3125 C43.3575 17.6325 43.0275 18.9525 42.6875 20.3125 C43.55375 20.539375 44.42 20.76625 45.3125 21 C49.35323255 22.57139599 51.55947109 24.33342484 54.6875 27.3125 C54.6875 27.9725 54.6875 28.6325 54.6875 29.3125 C53.61266357 29.32708252 52.53782715 29.34166504 51.43041992 29.35668945 C47.44375283 29.4146489 43.45765199 29.49188129 39.47143555 29.57495117 C37.74594307 29.60821172 36.02034151 29.63624019 34.29467773 29.65893555 C31.81446834 29.69246153 29.3352597 29.74477406 26.85546875 29.80078125 C25.69751045 29.81036613 25.69751045 29.81036613 24.51615906 29.82014465 C20.37082852 29.9151301 20.37082852 29.9151301 16.7043457 31.66088867 C15.0635499 34.32595076 15.25203621 36.26425349 15.6875 39.3125 C17.68156977 41.83285222 18.87070057 43.15033674 22.06430054 43.78437805 C23.38284531 43.76603157 23.38284531 43.76603157 24.72802734 43.74731445 C26.23011246 43.74300163 26.23011246 43.74300163 27.76254272 43.73860168 C29.37668564 43.70750557 29.37668564 43.70750557 31.0234375 43.67578125 C33.30729176 43.67564682 35.59114618 43.67632302 37.875 43.67773438 C41.47199092 43.65685021 45.06830518 43.6249225 48.66503906 43.5769043 C52.13928706 43.53808455 55.61152992 43.54203391 59.0859375 43.55078125 C60.15798431 43.52397781 61.23003113 43.49717438 62.33456421 43.46955872 C69.67411119 43.51749342 69.67411119 43.51749342 72.73907471 45.92196655 C74.23359189 47.65279721 75.51040361 49.3549017 76.6875 51.3125 C69.11587765 51.40544278 61.54431494 51.47638752 53.97225094 51.51974869 C50.45565994 51.54056691 46.93946107 51.56877697 43.4230957 51.61425781 C39.37447482 51.66629134 35.32626171 51.6854927 31.27734375 51.703125 C30.02291977 51.72377014 28.76849579 51.74441528 27.47605896 51.76568604 C20.57199292 51.76745269 16.34594262 51.33199007 10.6875 47.3125 C7.89902662 47.39963979 6.35995937 48.49337123 3.89819336 49.8527832 C-1.70745552 52.23078153 -7.70346616 51.68059383 -13.68359375 51.60546875 C-14.96105972 51.60122391 -16.2385257 51.59697906 -17.55470276 51.59260559 C-20.92998297 51.5787045 -24.30464052 51.5518115 -27.67974854 51.51849365 C-31.13214779 51.48765321 -34.5846117 51.4740706 -38.03710938 51.45898438 C-44.79574326 51.42597325 -51.55408573 51.37581661 -58.3125 51.3125 C-56.12403992 47.67292913 -54.07371893 44.76335528 -49.82391357 43.67544556 C-46.76744641 43.47324523 -43.77320934 43.47421798 -40.7109375 43.55078125 C-39.59691559 43.54797653 -38.48289368 43.54517181 -37.33511353 43.5422821 C-33.78492152 43.53701042 -30.23734993 43.57760772 -26.6875 43.625 C-23.13091986 43.65648054 -19.57518719 43.67778084 -16.01846313 43.67558289 C-13.80805652 43.67571299 -11.59753928 43.69602658 -9.38754272 43.73860168 C-8.38615265 43.7414769 -7.38476257 43.74435211 -6.35302734 43.74731445 C-5.4739975 43.75954544 -4.59496765 43.77177643 -3.68930054 43.78437805 C-0.4821508 43.14764664 0.70611337 41.86462659 2.6875 39.3125 C3.01844958 35.53967474 2.88504817 32.90514452 1.6875 29.3125 C-10.8525 29.3125 -23.3925 29.3125 -36.3125 29.3125 C-30.3125 22.3125 -30.3125 22.3125 -29.3125 21.3125 C-26.87804087 21.1650031 -24.46821433 21.07761465 -22.03125 21.03125 C-20.93822571 21.00363586 -20.93822571 21.00363586 -19.82312012 20.97546387 C-16.69294372 20.89653496 -13.56254361 20.8289625 -10.43212891 20.76025391 C-8.1525575 20.70862846 -5.87317728 20.65133739 -3.59375 20.59375 C-2.88021362 20.58017456 -2.16667725 20.56659912 -1.43151855 20.5526123 C1.91449999 20.75322762 1.91449999 20.75322762 4.6875 19.3125 C4.75976502 17.45962498 4.7713122 15.60416122 4.75 13.75 C4.729375 11.955625 4.70875 10.16125 4.6875 8.3125 C-1.2525 7.9825 -7.1925 7.6525 -13.3125 7.3125 C-13.3125 5.3125 -13.3125 5.3125 -11.33203125 2.70703125 C-7.37021487 -0.43474551 -4.87875167 -0.28339487 0 0 Z " fill="#CD8D3A" transform="translate(92.3125,53.6875)"/>
<path d="M0 0 C0.74056641 0.02255859 1.48113281 0.04511719 2.24414062 0.06835938 C4.05947357 0.1269185 5.87375681 0.21659114 7.6875 0.3125 C7.6875 0.9725 7.6875 1.6325 7.6875 2.3125 C8.6775 1.6525 9.6675 0.9925 10.6875 0.3125 C13.36518864 0.03779112 15.88375281 -0.10328043 18.5625 -0.125 C19.27019531 -0.15787109 19.97789063 -0.19074219 20.70703125 -0.22460938 C24.76146117 -0.26613519 26.49272103 0.15692978 29.6953125 2.71484375 C31.6875 5.3125 31.6875 5.3125 31.6875 7.3125 C27.7275 7.6425 23.7675 7.9725 19.6875 8.3125 C21.87126725 10.49626725 27.68284251 9.61340522 30.78515625 9.65429688 C36.2650675 9.86890178 36.2650675 9.86890178 38.55859375 12.27734375 C38.93113281 12.94894531 39.30367188 13.62054688 39.6875 14.3125 C41.77084635 15.5641467 41.77084635 15.5641467 43.6875 16.3125 C43.3575 17.6325 43.0275 18.9525 42.6875 20.3125 C44.3375 20.6425 45.9875 20.9725 47.6875 21.3125 C47.6875 21.6425 47.6875 21.9725 47.6875 22.3125 C46.67848633 22.30726318 45.66947266 22.30202637 44.62988281 22.29663086 C40.88021738 22.27850738 37.13055582 22.26704112 33.38085938 22.25756836 C31.75910796 22.25254495 30.13736105 22.24572506 28.515625 22.23706055 C26.18228031 22.22490771 23.8489956 22.21925172 21.515625 22.21484375 C20.79256165 22.20968246 20.06949829 22.20452118 19.32452393 22.19920349 C15.9673725 22.19883082 12.89643892 22.26342381 9.6875 23.3125 C10.6775 24.3025 11.6675 25.2925 12.6875 26.3125 C11.6875 28.3125 11.6875 28.3125 8.625 29.4375 C7.655625 29.72625 6.68625 30.015 5.6875 30.3125 C5.3575 33.2825 5.0275 36.2525 4.6875 39.3125 C4.3575 39.3125 4.0275 39.3125 3.6875 39.3125 C3.543125 38.219375 3.39875 37.12625 3.25 36 C2.80461896 32.38127013 2.80461896 32.38127013 1.6875 29.3125 C-10.8525 29.3125 -23.3925 29.3125 -36.3125 29.3125 C-30.3125 22.3125 -30.3125 22.3125 -29.3125 21.3125 C-26.87804087 21.1650031 -24.46821433 21.07761465 -22.03125 21.03125 C-20.93822571 21.00363586 -20.93822571 21.00363586 -19.82312012 20.97546387 C-16.69294372 20.89653496 -13.56254361 20.8289625 -10.43212891 20.76025391 C-8.1525575 20.70862846 -5.87317728 20.65133739 -3.59375 20.59375 C-2.88021362 20.58017456 -2.16667725 20.56659912 -1.43151855 20.5526123 C1.91449999 20.75322762 1.91449999 20.75322762 4.6875 19.3125 C4.75976502 17.45962498 4.7713122 15.60416122 4.75 13.75 C4.729375 11.955625 4.70875 10.16125 4.6875 8.3125 C-1.2525 7.9825 -7.1925 7.6525 -13.3125 7.3125 C-13.3125 5.3125 -13.3125 5.3125 -11.33203125 2.70703125 C-7.37021487 -0.43474551 -4.87875167 -0.28339487 0 0 Z " fill="#D19649" transform="translate(92.3125,53.6875)"/>
<path d="M0 0 C2.375 -0.125 2.375 -0.125 5 0 C5.66 0.66 6.32 1.32 7 2 C10.39340843 2.25847507 13.74524199 2.3665667 17.14648438 2.390625 C22.59081775 2.57027303 22.59081775 2.57027303 24.8671875 4.9609375 C25.42792969 5.97027344 25.42792969 5.97027344 26 7 C28.08334635 8.2516467 28.08334635 8.2516467 30 9 C29.67 10.32 29.34 11.64 29 13 C31.475 13.495 31.475 13.495 34 14 C34 14.33 34 14.66 34 15 C29.49774209 15.12361526 24.99647151 15.21434063 20.49291992 15.2746582 C18.96116939 15.29980078 17.42953883 15.33392047 15.89819336 15.37719727 C13.69615116 15.43786942 11.49569426 15.46620891 9.29296875 15.48828125 C8.60849167 15.51408768 7.92401459 15.5398941 7.21879578 15.56648254 C5.27807617 15.56762695 5.27807617 15.56762695 2 15 C-1.54049691 10.61848433 -1.35427158 7.40264165 -1 2 C-0.67 1.34 -0.34 0.68 0 0 Z " fill="#F2EAD6" transform="translate(106,61)"/>
<path d="M0 0 C5.15941688 -0.1240061 10.31795822 -0.21452867 15.47851562 -0.2746582 C17.23225015 -0.29973467 18.98588086 -0.33380495 20.73925781 -0.37719727 C23.26653706 -0.43815604 25.79242981 -0.46627719 28.3203125 -0.48828125 C29.09867462 -0.51408768 29.87703674 -0.5398941 30.6789856 -0.56648254 C34.77506043 -0.56857207 37.28392192 -0.18855037 40.54248047 2.40551758 C43 5 43 5 43 7 C37.05518819 7.04934399 31.11049491 7.08569282 25.16552734 7.10986328 C23.14206873 7.11993671 21.11862472 7.13359595 19.09521484 7.15087891 C16.19104411 7.17506847 13.28706539 7.18646949 10.3828125 7.1953125 C9.02024826 7.21079636 9.02024826 7.21079636 7.63015747 7.22659302 C6.78943695 7.22674408 5.94871643 7.22689514 5.08251953 7.22705078 C3.96999313 7.23371262 3.96999313 7.23371262 2.83499146 7.24050903 C1 7 1 7 -1 5 C-0.625 2.375 -0.625 2.375 0 0 Z " fill="#D09242" transform="translate(115,87)"/>
<path d="M0 0 C1.53446336 0.00109588 3.06923737 0.03993585 4.60205078 0.11108398 C5.41481476 0.12098862 6.22757874 0.13089325 7.06497192 0.14109802 C9.64432322 0.18008226 12.21931362 0.26785607 14.79736328 0.35717773 C16.55250985 0.39231305 18.30772359 0.42424819 20.06298828 0.45288086 C24.35111007 0.52978961 28.63599918 0.65044643 32.92236328 0.79467773 C33.41736328 3.26967773 33.41736328 3.26967773 33.92236328 5.79467773 C33.26236328 5.79467773 32.60236328 5.79467773 31.92236328 5.79467773 C31.92236328 6.45467773 31.92236328 7.11467773 31.92236328 7.79467773 C18.06236328 7.79467773 4.20236328 7.79467773 -10.07763672 7.79467773 C-4.07763672 0.79467773 -4.07763672 0.79467773 0 0 Z " fill="#D09141" transform="translate(55.07763671875,86.205322265625)"/>
<path d="M0 0 C1.15680267 0.00848969 1.15680267 0.00848969 2.3369751 0.01715088 C4.79299779 0.03948911 7.24754555 0.08967737 9.703125 0.140625 C11.37107263 0.16069346 13.03904321 0.17894363 14.70703125 0.1953125 C18.78962823 0.23934508 22.87112681 0.30835217 26.953125 0.390625 C26.623125 1.050625 26.293125 1.710625 25.953125 2.390625 C28.263125 2.720625 30.573125 3.050625 32.953125 3.390625 C32.953125 3.720625 32.953125 4.050625 32.953125 4.390625 C20.743125 4.720625 8.533125 5.050625 -4.046875 5.390625 C-3.716875 7.040625 -3.386875 8.690625 -3.046875 10.390625 C3.223125 10.720625 9.493125 11.050625 15.953125 11.390625 C15.953125 11.720625 15.953125 12.050625 15.953125 12.390625 C8.033125 12.885625 8.033125 12.885625 -0.046875 13.390625 C21.733125 13.885625 21.733125 13.885625 43.953125 14.390625 C43.953125 14.720625 43.953125 15.050625 43.953125 15.390625 C36.78168631 15.51745081 29.61053702 15.60498741 22.43823242 15.6652832 C19.99866936 15.69041996 17.55918155 15.72453446 15.11987305 15.76782227 C11.61227854 15.82850729 8.1056801 15.856844 4.59765625 15.87890625 C3.50789993 15.90471268 2.41814362 15.9305191 1.29536438 15.95710754 C-6.26986875 15.9599067 -6.26986875 15.9599067 -10.23950195 13.05151367 C-12.046875 10.390625 -12.046875 10.390625 -12.609375 7.328125 C-11.24378127 0.19669106 -6.36339999 -0.17635487 0 0 Z " fill="#FAF6E3" transform="translate(119.046875,82.609375)"/>
<path d="M0 0 C3.0625 1.5625 3.0625 1.5625 5 4 C5.79082445 8.3495345 5.50272587 10.23780272 3.0625 13.9375 C-0.51375359 16.34599732 -2.60531907 16.74203371 -6.83984375 16.48046875 C-10.50246824 15.66581629 -11.97177793 14.07504636 -14 11 C-14.625 7.4375 -14.625 7.4375 -14 4 C-10.25059873 -0.71698869 -5.62334936 -0.98637412 0 0 Z " fill="#2C2C2C" transform="translate(115,134)"/>
<path d="M0 0 C12.625 -0.25 12.625 -0.25 16 2 C16.86106669 4.58320006 17.21653619 6.33321624 17.3125 9 C17.34988281 9.680625 17.38726562 10.36125 17.42578125 11.0625 C17 13 17 13 15.40234375 14.73828125 C12.21072424 16.41453019 9.83421641 16.29502649 6.25 16.1875 C4.1875 16.125625 2.125 16.06375 0 16 C0 10.72 0 5.44 0 0 Z " fill="#4E4E4E" transform="translate(143,134)"/>
<path d="M0 0 C3.61986532 0.8116877 5.12897034 2.4703572 7.16015625 5.484375 C7.78515625 8.484375 7.78515625 8.484375 7.16015625 11.484375 C5.12897034 14.4983928 3.61986532 16.1570623 0 16.96875 C-4.27454545 17.22565089 -6.32095478 16.84442041 -9.90234375 14.359375 C-11.83984375 11.484375 -11.83984375 11.484375 -12.46484375 8.484375 C-11.02428942 1.56971423 -6.5310975 -0.39252005 0 0 Z " fill="#212121" transform="translate(49.83984375,133.515625)"/>
<path d="M0 0 C0.94074875 0.00007553 1.8814975 0.00015106 2.85075378 0.00022888 C3.86333755 0.00539017 4.87592133 0.01055145 5.91918945 0.01586914 C6.95815872 0.01728409 7.99712799 0.01869904 9.06758118 0.02015686 C12.38924018 0.02575884 15.71083203 0.03831167 19.0324707 0.05102539 C21.28312077 0.05604014 23.5337719 0.06060309 25.78442383 0.06469727 C31.30462907 0.0757289 36.82479509 0.09246896 42.3449707 0.11352539 C42.9074707 2.05102539 42.9074707 2.05102539 43.3449707 4.11352539 C42.3449707 5.11352539 42.3449707 5.11352539 40.28855896 5.23377991 C39.38477005 5.2315593 38.48098114 5.22933868 37.54980469 5.22705078 C36.52882187 5.22697525 35.50783905 5.22689972 34.45591736 5.2268219 C33.3455159 5.22166061 32.23511444 5.21649933 31.09106445 5.21118164 C29.96048111 5.20976669 28.82989777 5.20835175 27.66505432 5.20689392 C24.03750005 5.20127558 20.41000646 5.18871997 16.7824707 5.17602539 C14.32999763 5.17101275 11.8775236 5.16644944 9.42504883 5.16235352 C3.39833525 5.15130019 -2.62834269 5.13454423 -8.6550293 5.11352539 C-8.3425293 3.17602539 -8.3425293 3.17602539 -7.6550293 1.11352539 C-4.77540096 0.15364928 -2.98875489 -0.00801275 0 0 Z " fill="#D28C30" transform="translate(45.655029296875,98.886474609375)"/>
<path d="M0 0 C13.75 -0.125 13.75 -0.125 16 1 C16.36923077 6.53846154 16.36923077 6.53846154 14.5 8.875 C14.005 9.24625 13.51 9.6175 13 10 C14.98 12.97 14.98 12.97 17 16 C15.02 16 13.04 16 11 16 C10.5875 15.030625 10.175 14.06125 9.75 13.0625 C8.35100832 9.87739901 8.35100832 9.87739901 5.8125 9.125 C5.214375 9.08375 4.61625 9.0425 4 9 C4.33 11.31 4.66 13.62 5 16 C3.35 16 1.7 16 0 16 C0 10.72 0 5.44 0 0 Z " fill="#2E2E2E" transform="translate(123,134)"/>
<path d="M0 0 C4.23792063 0.02428608 6.8492993 0.52943944 10.25 3.25 C9.92 4.24 9.59 5.23 9.25 6.25 C8.54875 5.92 7.8475 5.59 7.125 5.25 C3.867944 4.11711096 1.67302438 3.81301816 -1.75 4.25 C-4.58171242 6.26200619 -5.59987863 7.37071767 -6.1875 10.8125 C-5.89687075 13.23858193 -5.89687075 13.23858193 -4.6875 15.0625 C-1.67139458 16.91108074 0.7856901 16.5486474 4.25 16.25 C7.08378132 15.3525173 7.08378132 15.3525173 9.25 14.25 C9.25 15.57 9.25 16.89 9.25 18.25 C4.80139766 21.2157349 0.46856465 20.89087636 -4.75 20.25 C-7.75197464 18.44881522 -9.20166366 17.34667268 -10.75 14.25 C-11.25698467 9.09565588 -11.25698467 9.09565588 -10.75 6.25 C-8.3125 3.3125 -8.3125 3.3125 -5.75 1.25 C-4.11069007 -0.38930993 -2.25256326 0.03998633 0 0 Z " fill="#292929" transform="translate(24.75,129.75)"/>
<path d="M0 0 C3.39494112 -0.20402829 6.78830486 -0.32784854 10.1875 -0.4375 C11.14720703 -0.49615234 12.10691406 -0.55480469 13.09570312 -0.61523438 C20.11487607 -0.78524894 20.11487607 -0.78524894 22.79150391 1.58935547 C24.17578125 3.52734375 24.17578125 3.52734375 26 7 C21.85418113 7.02886751 17.70838784 7.04675327 13.5625 7.0625 C11.78649414 7.07506836 11.78649414 7.07506836 9.97460938 7.08789062 C8.84990234 7.09111328 7.72519531 7.09433594 6.56640625 7.09765625 C5.00321655 7.10551147 5.00321655 7.10551147 3.40844727 7.11352539 C1 7 1 7 0 6 C-0.04080783 4.00041636 -0.04254356 1.99954746 0 0 Z " fill="#D09040" transform="translate(109,65)"/>
<path d="M0 0 C0.89589844 0.00322266 1.79179688 0.00644531 2.71484375 0.00976562 C4.12056641 0.02233398 4.12056641 0.02233398 5.5546875 0.03515625 C6.49957031 0.03966797 7.44445312 0.04417969 8.41796875 0.04882812 C10.75527137 0.06063268 13.09244811 0.07709866 15.4296875 0.09765625 C15.47223106 2.09720371 15.47049533 4.09807261 15.4296875 6.09765625 C14.4296875 7.09765625 14.4296875 7.09765625 12.02124023 7.21118164 C10.97911377 7.20594482 9.9369873 7.20070801 8.86328125 7.1953125 C7.73857422 7.19208984 6.61386719 7.18886719 5.45507812 7.18554688 C4.27107422 7.17716797 3.08707031 7.16878906 1.8671875 7.16015625 C0.67931641 7.15564453 -0.50855469 7.15113281 -1.73242188 7.14648438 C-4.67843476 7.134653 -7.62434931 7.11816912 -10.5703125 7.09765625 C-6.01559147 -0.03807336 -6.01559147 -0.03807336 0 0 Z " fill="#D09042" transform="translate(78.5703125,64.90234375)"/>
<path d="M0 0 C5 0 5 0 6.984375 1.71484375 C7.56703125 2.44832031 8.1496875 3.18179688 8.75 3.9375 C9.34296875 4.66839844 9.9359375 5.39929688 10.546875 6.15234375 C11.02640625 6.76207031 11.5059375 7.37179688 12 8 C12.33 8.33 12.66 8.66 13 9 C13.33 6.03 13.66 3.06 14 0 C15.32 0.33 16.64 0.66 18 1 C17.67 5.62 17.34 10.24 17 15 C12.05872037 14.01174407 11.33319895 13.82992043 8.1875 10.4375 C7.58292969 9.79683594 6.97835937 9.15617188 6.35546875 8.49609375 C5.90816406 8.00238281 5.46085937 7.50867188 5 7 C4.67 9.97 4.34 12.94 4 16 C2.68 16 1.36 16 0 16 C0 10.72 0 5.44 0 0 Z " fill="#282828" transform="translate(60,134)"/>
<path d="M0 0 C0.78503906 0.00386719 1.57007813 0.00773437 2.37890625 0.01171875 C4.4375 0.3125 4.4375 0.3125 6.4375 2.3125 C7.11946721 9.47315574 7.11946721 9.47315574 4.8125 12.3125 C1.734049 13.60868989 -0.25126368 13.79538863 -3.5625 13.3125 C-5.9375 11.6875 -5.9375 11.6875 -7.5625 9.3125 C-8.01384838 6.15306135 -8.27112581 4.26179118 -6.3203125 1.6484375 C-4.07842475 -0.05539719 -2.78906108 -0.05973277 0 0 Z " fill="#2E2E2E" transform="translate(135.5625,112.6875)"/>
<path d="M0 0 C8.3984375 -0.1953125 8.3984375 -0.1953125 11 0 C13 2 13 2 13.1875 4.375 C13 7 13 7 12.375 9.125 C12.25125 9.74375 12.1275 10.3625 12 11 C12.99 12.485 12.99 12.485 14 14 C12.35 14 10.7 14 9 14 C8.5978125 13.0409375 8.5978125 13.0409375 8.1875 12.0625 C7.11332248 9.66868314 7.11332248 9.66868314 4 9 C4 10.65 4 12.3 4 14 C2.68 14 1.36 14 0 14 C0 9.38 0 4.76 0 0 Z " fill="#666666" transform="translate(81,112)"/>
<path d="M0 0 C1.32 0 2.64 0 4 0 C4.98753064 1.72440365 5.96468806 3.45475026 6.9375 5.1875 C7.48277344 6.15042969 8.02804688 7.11335937 8.58984375 8.10546875 C9.90579333 10.80662842 10.57301887 13.04356101 11 16 C9.68 16 8.36 16 7 16 C6.67 15.01 6.34 14.02 6 13 C3.36 13 0.72 13 -2 13 C-2.33 13.66 -2.66 14.32 -3 15 C-3.99 15 -4.98 15 -6 15 C-5.39644592 11.14974121 -4.23227397 8.13898841 -2.4375 4.6875 C-1.98246094 3.80449219 -1.52742187 2.92148438 -1.05859375 2.01171875 C-0.53458984 1.01591797 -0.53458984 1.01591797 0 0 Z " fill="#1D1D1D" transform="translate(178,134)"/>
<path d="M0 0 C1.28197266 -0.01160156 1.28197266 -0.01160156 2.58984375 -0.0234375 C5.4850126 0.4430826 6.88197953 1.46261778 9.0625 3.375 C8.7325 4.035 8.4025 4.695 8.0625 5.375 C7.546875 5.21 7.03125 5.045 6.5 4.875 C3.31054881 4.2207536 0.30864095 4.25250412 -2.9375 4.375 C-4.28154775 5.49336224 -4.28154775 5.49336224 -4.0625 8.375 C-4.28154775 11.25663776 -4.28154775 11.25663776 -2.9375 12.375 C0.8986222 12.51975933 4.38557787 12.55161508 8.0625 11.375 C8.3925 12.365 8.7225 13.355 9.0625 14.375 C4.52518511 16.99025789 0.18511762 17.18204589 -4.9375 16.375 C-7.625 14.375 -7.625 14.375 -8.9375 11.375 C-9.12983752 7.84423262 -8.82646166 4.59732229 -6.6875 1.65625 C-4.36487702 -0.04424183 -2.85738486 -0.02578092 0 0 Z " fill="#212121" transform="translate(89.9375,133.625)"/>
<path d="M0 0 C8.3984375 -0.1953125 8.3984375 -0.1953125 11 0 C13 2 13 2 13.25 4.5 C13 7 13 7 11 9 C7.375 9.125 7.375 9.125 4 9 C4 10.65 4 12.3 4 14 C2.68 14 1.36 14 0 14 C0 9.38 0 4.76 0 0 Z " fill="#656565" transform="translate(113,112)"/>
<path d="M0 0 C0.99 0.33 1.98 0.66 3 1 C3 1.99 3 2.98 3 4 C2.37351562 3.90460938 1.74703125 3.80921875 1.1015625 3.7109375 C0.28429687 3.60007812 -0.53296875 3.48921875 -1.375 3.375 C-2.59316406 3.20097656 -2.59316406 3.20097656 -3.8359375 3.0234375 C-4.55007812 3.01570313 -5.26421875 3.00796875 -6 3 C-8.33278733 4.89107141 -8.33278733 4.89107141 -8.1875 8.0625 C-8.33187793 10.88833136 -8.33187793 10.88833136 -7 12 C-4.66702567 12.04092937 -2.33294775 12.04241723 0 12 C0.33 11.34 0.66 10.68 1 10 C-0.32 10 -1.64 10 -3 10 C-3 9.34 -3 8.68 -3 8 C-0.36 8 2.28 8 5 8 C4.51624549 13.5631769 4.51624549 13.5631769 2.375 15.375 C-2.22607359 16.58580884 -5.65472761 16.6869476 -9.9375 14.5 C-12.44669396 11.45855278 -12.69047708 9.75886447 -12.41015625 5.90625 C-12 4 -12 4 -10.5 1.5 C-6.80275122 -0.71834927 -4.28837513 -0.34034723 0 0 Z " fill="#1B1B1B" transform="translate(73,110)"/>
<path d="M0 0 C2.81256281 -0.02684312 5.62487241 -0.04676188 8.4375 -0.0625 C9.23994141 -0.07087891 10.04238281 -0.07925781 10.86914062 -0.08789062 C12.91295221 -0.0965143 14.95683902 -0.0522815 17 0 C18 1 18 1 18.09765625 3.50390625 C18.08605469 4.51324219 18.07445313 5.52257812 18.0625 6.5625 C18.05347656 7.57441406 18.04445313 8.58632812 18.03515625 9.62890625 C18.02355469 10.41136719 18.01195313 11.19382812 18 12 C17.01 12.495 17.01 12.495 16 13 C15.67 12.34 15.34 11.68 15 11 C14.67 11.33 14.34 11.66 14 12 C12.07332493 12.08748207 10.14348139 12.10697334 8.21484375 12.09765625 C7.04501953 12.09443359 5.87519531 12.09121094 4.66992188 12.08789062 C2.82237305 12.07532227 2.82237305 12.07532227 0.9375 12.0625 C-0.91584961 12.05573242 -0.91584961 12.05573242 -2.80664062 12.04882812 C-5.87114117 12.03699608 -8.93554721 12.02051173 -12 12 C-12 11.67 -12 11.34 -12 11 C0.375 10.505 0.375 10.505 13 10 C13.33 8.02 13.66 6.04 14 4 C7.4 4 0.8 4 -6 4 C-6 3.67 -6 3.34 -6 3 C-1.38 2.67 3.24 2.34 8 2 C5.36 1.67 2.72 1.34 0 1 C0 0.67 0 0.34 0 0 Z " fill="#F3ECD5" transform="translate(80,61)"/>
<path d="M0 0 C3.5 0.25 3.5 0.25 5.5 2.25 C5.75 5.25 5.75 5.25 5.5 8.25 C3.5 10.25 3.5 10.25 0 10.5 C-3.5 10.25 -3.5 10.25 -5.5 8.25 C-5.75 5.25 -5.75 5.25 -5.5 2.25 C-3.5 0.25 -3.5 0.25 0 0 Z " fill="#ECECEC" transform="translate(47.5,136.75)"/>
<path d="M0 0 C3.5 0.25 3.5 0.25 5.5 2.25 C4.92307692 8.82692308 4.92307692 8.82692308 3.5 10.25 C0.0625 10.4375 0.0625 10.4375 -3.5 10.25 C-5.5 8.25 -5.5 8.25 -5.75 5.25 C-5.37802459 0.78629509 -4.42019834 0.31572845 0 0 Z " fill="#F0F0F0" transform="translate(110.5,136.75)"/>
<path d="M0 0 C1.27875 -0.061875 2.5575 -0.12375 3.875 -0.1875 C4.95394531 -0.23970703 4.95394531 -0.23970703 6.0546875 -0.29296875 C6.69664062 -0.19628906 7.33859375 -0.09960938 8 0 C10 3 10 3 9.75 6.125 C9.5025 7.07375 9.255 8.0225 9 9 C6.04335481 10.4783226 3.25770263 10.06032783 0 10 C0 6.7 0 3.4 0 0 Z " fill="#F1F1F1" transform="translate(147,137)"/>
<path d="M0 0 C0.99 0 1.98 0 3 0 C3.33 2.97 3.66 5.94 4 9 C6.97 9.495 6.97 9.495 10 10 C10 6.7 10 3.4 10 0 C10.99 0 11.98 0 13 0 C13.08086147 1.79093191 13.13912702 3.58289628 13.1875 5.375 C13.22230469 6.37273437 13.25710937 7.37046875 13.29296875 8.3984375 C13.19628906 9.25695312 13.09960938 10.11546875 13 11 C9.30513897 13.46324069 7.36706908 13.38991688 3 13 C1.29296875 11.8046875 1.29296875 11.8046875 0 10 C-0.29296875 7.51953125 -0.29296875 7.51953125 -0.1875 4.8125 C-0.16042969 3.91144531 -0.13335937 3.01039062 -0.10546875 2.08203125 C-0.07066406 1.39496094 -0.03585938 0.70789063 0 0 Z " fill="#303030" transform="translate(97,113)"/>
<path d="M0 0 C4.62 0 9.24 0 14 0 C13.01 0.66 12.02 1.32 11 2 C11.33 3.65 11.66 5.3 12 7 C9.36 7 6.72 7 4 7 C3.34 5.68 2.68 4.36 2 3 C1.67 6.96 1.34 10.92 1 15 C2.98 15.495 2.98 15.495 5 16 C3.35 16 1.7 16 0 16 C0 10.72 0 5.44 0 0 Z " fill="#474747" transform="translate(123,134)"/>
<path d="M0 0 C-2 1.33333333 -4 2.66666667 -6 4 C-6.2502157 7.08365871 -6.2502157 7.08365871 -6 10 C-4.02 10.99 -2.04 11.98 0 13 C0 13.33 0 13.66 0 14 C-7.40256709 14.48541424 -7.40256709 14.48541424 -10 12.375 C-11.28292178 9.32806078 -11.40995912 7.27967299 -11 4 C-8.7771202 -1.27933953 -5.04466178 -0.33079749 0 0 Z " fill="#1A1A1A" transform="translate(49,135)"/>
<path d="M0 0 C-2 1.33333333 -4 2.66666667 -6 4 C-6.2502157 7.08365871 -6.2502157 7.08365871 -6 10 C-4.02 10.99 -2.04 11.98 0 13 C0 13.33 0 13.66 0 14 C-7.38052027 14.48396854 -7.38052027 14.48396854 -10 12.4375 C-11.37020241 9.09763163 -11.3898913 6.57400356 -11 3 C-8.76467814 -1.3309361 -4.26119511 -0.20956697 0 0 Z " fill="#272727" transform="translate(112,135)"/>
<path d="M0 0 C1.32 0 2.64 0 4 0 C4 5.28 4 10.56 4 16 C2.35 16 0.7 16 -1 16 C-0.67 10.72 -0.34 5.44 0 0 Z " fill="#303030" transform="translate(164,134)"/>
<path d="M0 0 C2.64 0 5.28 0 8 0 C8 0.33 8 0.66 8 1 C6.35 1 4.7 1 3 1 C3 4.63 3 8.26 3 12 C5.64 12 8.28 12 11 12 C11.33 12.66 11.66 13.32 12 14 C8.04 14 4.08 14 0 14 C0 9.38 0 4.76 0 0 Z " fill="#0F0F0F" transform="translate(144,135)"/>
<path d="M0 0 C2.5625 0.1875 2.5625 0.1875 4.5625 2.1875 C4.00694444 6.74305556 4.00694444 6.74305556 2.5625 8.1875 C0.125 8.375 0.125 8.375 -2.4375 8.1875 C-3.0975 7.5275 -3.7575 6.8675 -4.4375 6.1875 C-3.71780303 0.28598485 -3.71780303 0.28598485 0 0 Z " fill="#F0F0F0" transform="translate(135.4375,114.8125)"/>
<path d="M0 0 C2.64 0 5.28 0 8 0 C7.51624549 5.5631769 7.51624549 5.5631769 5.375 7.375 C1.55542438 8.38015148 -2.40153254 8.79923373 -6 7 C-6 6.01 -6 5.02 -6 4 C-3.03 4 -0.06 4 3 4 C3.33 3.34 3.66 2.68 4 2 C2.68 2 1.36 2 0 2 C0 1.34 0 0.68 0 0 Z " fill="#282828" transform="translate(70,118)"/>
<path d="M0 0 C8.49609375 -0.09765625 8.49609375 -0.09765625 11 0 C12 1 12 1 12.0625 3.5625 C12.041875 4.366875 12.02125 5.17125 12 6 C10.68 5.67 9.36 5.34 8 5 C8.33 4.01 8.66 3.02 9 2 C6.69 2 4.38 2 2 2 C2 5.3 2 8.6 2 12 C1.34 12 0.68 12 0 12 C0 8.04 0 4.08 0 0 Z " fill="#151515" transform="translate(82,113)"/>
<path d="M0 0 C2 2 2 2 3 5 C5.64 5.33 8.28 5.66 11 6 C7.91190305 7.76462683 6.76687864 8 3 8 C3 9.98 3 11.96 3 14 C2.01 14 1.02 14 0 14 C0 9.38 0 4.76 0 0 Z " fill="#0B0B0B" transform="translate(124,135)"/>
<path d="M0 0 C3.375 -0.125 3.375 -0.125 7 0 C9 2 9 2 9.265625 3.875 C9.26046875 4.57625 9.2553125 5.2775 9.25 6 C9.25515625 6.70125 9.2603125 7.4025 9.265625 8.125 C9 10 9 10 7 12 C4.875 11.625 4.875 11.625 3 11 C3.66 11 4.32 11 5 11 C5.33 8.69 5.66 6.38 6 4 C3.69 3.34 1.38 2.68 -1 2 C-0.67 1.34 -0.34 0.68 0 0 Z " fill="#181818" transform="translate(133,113)"/>
<path d="M0 0 C0.66 0 1.32 0 2 0 C2.33 1.98 2.66 3.96 3 6 C1.02 6 -0.96 6 -3 6 C-3.33 7.32 -3.66 8.64 -4 10 C-4.99 10 -5.98 10 -7 10 C-6.25 5.25 -6.25 5.25 -4 3 C-3.34 3 -2.68 3 -2 3 C-1.34 2.01 -0.68 1.02 0 0 Z " fill="#616161" transform="translate(179,139)"/>
<path d="M0 0 C1.81242052 -0.02687279 3.62495233 -0.04633715 5.4375 -0.0625 C6.44683594 -0.07410156 7.45617187 -0.08570312 8.49609375 -0.09765625 C11 0 11 0 12 1 C12.04063832 2.66617115 12.042721 4.33388095 12 6 C10.68 5.67 9.36 5.34 8 5 C8.33 4.01 8.66 3.02 9 2 C6.69 2 4.38 2 2 2 C1.67 2.99 1.34 3.98 1 5 C0.67 3.35 0.34 1.7 0 0 Z " fill="#1C1C1C" transform="translate(114,113)"/>
<path d="M0 0 C0.99 0 1.98 0 3 0 C3.07347656 1.17369141 3.07347656 1.17369141 3.1484375 2.37109375 C3.22320312 3.38300781 3.29796875 4.39492187 3.375 5.4375 C3.44460937 6.44683594 3.51421875 7.45617187 3.5859375 8.49609375 C3.72257812 9.32238281 3.85921875 10.14867188 4 11 C4.66 11.33 5.32 11.66 6 12 C4.35 12 2.7 12 1 12 C-0.26237731 9.47524538 -0.09856404 7.68799534 -0.0625 4.875 C-0.05347656 3.96492188 -0.04445313 3.05484375 -0.03515625 2.1171875 C-0.02355469 1.41851562 -0.01195313 0.71984375 0 0 Z " fill="#1E1E1E" transform="translate(97,113)"/>
<path d="M0 0 C1.20628008 2.33214148 2.1654738 4.49642139 3 7 C1.0373772 9.04795423 -0.4277307 9.94976638 -3.26953125 10.19921875 C-5.51954383 10.18858877 -7.75385562 10.12958525 -10 10 C-7.28922757 7.02873292 -4.86848614 6.11756266 -1 5 C-0.67 3.35 -0.34 1.7 0 0 Z " fill="#343434" transform="translate(53,140)"/>
<path d="M0 0 C1.32 0.33 2.64 0.66 4 1 C2.25 4.875 2.25 4.875 0 6 C-1.54023996 6.06950541 -3.08334988 6.08452357 -4.625 6.0625 C-5.85089844 6.04896484 -5.85089844 6.04896484 -7.1015625 6.03515625 C-8.04128906 6.01775391 -8.04128906 6.01775391 -9 6 C-6.4107059 3.16086173 -4.76168736 2.69294241 -1 2 C-0.67 1.34 -0.34 0.68 0 0 Z " fill="#343434" transform="translate(115,144)"/>
<path d="M0 0 C2.64 0 5.28 0 8 0 C8 1.32 8 2.64 8 4 C5.36 4 2.72 4 0 4 C0 2.68 0 1.36 0 0 Z " fill="#E3E3E3" transform="translate(127,137)"/>
<path d="M0 0 C0.33 0.99 0.66 1.98 1 3 C-2.21182149 4.90608098 -4.53882603 5.22266247 -8.25 5.125 C-9.14203125 5.10695312 -10.0340625 5.08890625 -10.953125 5.0703125 C-11.96632813 5.03550781 -11.96632813 5.03550781 -13 5 C-9.13707929 1.89434789 -5.0699826 0 0 0 Z " fill="#3B3B3B" transform="translate(98,145)"/>
<path d="M0 0 C1.58294782 -0.05437607 3.16644256 -0.09296271 4.75 -0.125 C5.63171875 -0.14820313 6.5134375 -0.17140625 7.421875 -0.1953125 C10.1135858 0.00860498 11.69904974 0.63448279 14 2 C13.67 2.99 13.34 3.98 13 5 C12.34 4.71125 11.68 4.4225 11 4.125 C7.37500535 2.76562701 3.76653307 1.89375361 0 1 C0 0.67 0 0.34 0 0 Z " fill="#0E0E0E" transform="translate(21,131)"/>
<path d="M0 0 C1.58246707 -0.08153933 3.16616273 -0.13943557 4.75 -0.1875 C6.07257813 -0.23970703 6.07257813 -0.23970703 7.421875 -0.29296875 C10.44671583 0.05076316 11.75583602 1.00227459 14 3 C13.67 3.66 13.34 4.32 13 5 C11.58089348 4.74225629 10.16475101 4.46816835 8.75 4.1875 C7.96109375 4.03667969 7.1721875 3.88585937 6.359375 3.73046875 C3.74095891 2.91980019 2.08895488 1.74878103 0 0 Z " fill="#353535" transform="translate(85,134)"/>
<path d="M0 0 C1.21816406 0.03480469 1.21816406 0.03480469 2.4609375 0.0703125 C3.68683594 0.09738281 3.68683594 0.09738281 4.9375 0.125 C5.87722656 0.15980469 5.87722656 0.15980469 6.8359375 0.1953125 C6.21976563 0.49566406 5.60359375 0.79601562 4.96875 1.10546875 C1.3034993 2.97837158 -0.86691917 4.74959751 -3.1640625 8.1953125 C-3.7890625 5.3203125 -3.7890625 5.3203125 -4.1640625 2.1953125 C-2.1640625 0.1953125 -2.1640625 0.1953125 0 0 Z " fill="#111111" transform="translate(86.1640625,134.8046875)"/>
<path d="M0 0 C1.75 0.125 1.75 0.125 4 1 C6.25 4.0625 6.25 4.0625 8 7 C6.02 7 4.04 7 2 7 C1.34 4.69 0.68 2.38 0 0 Z " fill="#2E2E2E" transform="translate(132,143)"/>
<path d="M0 0 C0.66 0.33 1.32 0.66 2 1 C1 4 1 4 -2 6 C-4.69921875 6.1953125 -4.69921875 6.1953125 -7.6875 6.125 C-9.17830078 6.09792969 -9.17830078 6.09792969 -10.69921875 6.0703125 C-11.45847656 6.04710937 -12.21773437 6.02390625 -13 6 C-13 5.67 -13 5.34 -13 5 C-9.7 5 -6.4 5 -3 5 C-3.33 4.01 -3.66 3.02 -4 2 C-2.125 0.9375 -2.125 0.9375 0 0 Z " fill="#3C3C3C" transform="translate(33,144)"/>
<path d="M0 0 C2.89932357 2.39509338 3.50168276 4.31245243 4 8 C2.68 8 1.36 8 0 8 C-0.66 6.02 -1.32 4.04 -2 2 C-1.34 1.34 -0.68 0.68 0 0 Z " fill="#323232" transform="translate(185,142)"/>
<path d="M0 0 C2.12472576 -0.05386629 4.24983652 -0.09273071 6.375 -0.125 C7.55835938 -0.14820313 8.74171875 -0.17140625 9.9609375 -0.1953125 C13 0 13 0 15 2 C11.30025941 3.18391699 7.86200562 3.27585754 4 3 C1.78125 1.484375 1.78125 1.484375 0 0 Z " fill="#323232" transform="translate(143,134)"/>
<path d="M0 0 C0.66 0 1.32 0 2 0 C2 0.66 2 1.32 2 2 C1.01 2.495 1.01 2.495 0 3 C-0.46523063 4.89533342 -0.46523063 4.89533342 -0.625 7.0625 C-0.74875 8.361875 -0.8725 9.66125 -1 11 C-1.66 10.67 -2.32 10.34 -3 10 C-3.2295711 6.63295715 -3.33943529 4.58629732 -1.625 1.625 C-1.08875 1.08875 -0.5525 0.5525 0 0 Z " fill="#2C2C2C" transform="translate(41,135)"/>
<path d="M0 0 C1.65 0 3.3 0 5 0 C5.33 2.64 5.66 5.28 6 8 C5.01 8 4.02 8 3 8 C2.01 5.36 1.02 2.72 0 0 Z " fill="#0F0F0F" transform="translate(154,136)"/>
<path d="M0 0 C1.65 0 3.3 0 5 0 C5.68707555 2.49064888 6 4.37886292 6 7 C4.68 6.67 3.36 6.34 2 6 C2 4.35 2 2.7 2 1 C1.34 0.67 0.68 0.34 0 0 Z " fill="#272727" transform="translate(60,134)"/>
<path d="M0 0 C2.31 0 4.62 0 7 0 C7 0.99 7 1.98 7 3 C4.69 3 2.38 3 0 3 C0 2.01 0 1.02 0 0 Z " fill="#E8E8E8" transform="translate(84,115)"/>
<path d="M0 0 C2.97 0.33 5.94 0.66 9 1 C9 1.99 9 2.98 9 4 C4.545 3.01 4.545 3.01 0 2 C0 1.34 0 0.68 0 0 Z " fill="#131313" transform="translate(67,110)"/>
<path d="M0 0 C1.98 0 3.96 0 6 0 C5.01 0.66 4.02 1.32 3 2 C1.9790625 3.051875 1.9790625 3.051875 0.9375 4.125 C-1 6 -1 6 -3 6 C-2.67 4.68 -2.34 3.36 -2 2 C-1.34 2 -0.68 2 0 2 C0 1.34 0 0.68 0 0 Z " fill="#141414" transform="translate(43,135)"/>
<path d="M0 0 C1.45792884 -0.05399736 2.91642712 -0.09279177 4.375 -0.125 C5.18710937 -0.14820313 5.99921875 -0.17140625 6.8359375 -0.1953125 C9 0 9 0 11 2 C5.04296875 3.07421875 5.04296875 3.07421875 3 3 C1.23828125 1.51953125 1.23828125 1.51953125 0 0 Z " fill="#343434" transform="translate(43,134)"/>
<path d="M0 0 C0.66 0.33 1.32 0.66 2 1 C1.01 2.485 1.01 2.485 0 4 C0.99 4.33 1.98 4.66 3 5 C0.36 5 -2.28 5 -5 5 C-3.35 3.35 -1.7 1.7 0 0 Z " fill="#CC8B39" transform="translate(85,55)"/>
<path d="M0 0 C1.98 0 3.96 0 6 0 C6 0.99 6 1.98 6 3 C4.02 3 2.04 3 0 3 C0 2.01 0 1.02 0 0 Z " fill="#F1F1F1" transform="translate(117,115)"/>
<path d="M0 0 C-0.33 1.32 -0.66 2.64 -1 4 C-2.65 4.33 -4.3 4.66 -6 5 C-3.74193548 0 -3.74193548 0 0 0 Z " fill="#323232" transform="translate(67,110)"/>
<path d="M0 0 C0.99 0 1.98 0 3 0 C2.67 1.65 2.34 3.3 2 5 C-0.64 5 -3.28 5 -6 5 C-6 4.67 -6 4.34 -6 4 C-4.02 4 -2.04 4 0 4 C0 2.68 0 1.36 0 0 Z " fill="#0F0F0F" transform="translate(182,141)"/>
<path d="M0 0 C1.4540625 0.0309375 1.4540625 0.0309375 2.9375 0.0625 C1.9475 0.7225 0.9575 1.3825 -0.0625 2.0625 C-1.73673683 3.38631517 -3.40461215 4.71826661 -5.0625 6.0625 C-3.98897059 0.08140756 -3.98897059 0.08140756 0 0 Z " fill="#0E0E0E" transform="translate(109.0625,134.9375)"/>
<path d="M0 0 C3.3 0 6.6 0 10 0 C9.67 1.65 9.34 3.3 9 5 C8.67 4.01 8.34 3.02 8 2 C5.36 1.67 2.72 1.34 0 1 C0 0.67 0 0.34 0 0 Z " fill="#090909" transform="translate(128,135)"/>
<path d="M0 0 C1.32 1.32 2.64 2.64 4 4 C2.35 4.33 0.7 4.66 -1 5 C-1.33 3.68 -1.66 2.36 -2 1 C-1.34 0.67 -0.68 0.34 0 0 Z " fill="#CF9041" transform="translate(162,98)"/>
</svg>
